# xmcd
#
# Track frame offsets:
#	183
#	13723
#	27020
#	37783
#	50945
#	66483
#	79958
#	93820
#	109063
#	121220
#
# Disc length: 1773
#
# Revision: 5
# Processed by: cddbd v1.5.1PL0 Copyright (c) Steve Scherf et al.
# Submitted via: dBpowerAMP V4.0
# Normalized: r3:TSWAP
#
DISCID=7b06eb0a
DTITLE=Various Artist - The Hits
DYEAR=1900
DGENRE=R&B
TTITLE0=Ben E. King - Stand By Me
TTITLE1=Ben E. King - Spanish Harlem
TTITLE2=Ben E. King - I (Who Have Nothing)
TTITLE3=Ben E. King - Don't Play That Song (You Lied)
TTITLE4=Ben E. King - Supernatural Thing - Part 1
TTITLE5=Percy Sledge - When A Man Loves A Woman
TTITLE6=Percy Sledge - Take Time To Know Her
TTITLE7=Percy Sledge - Warm And Tender Love
TTITLE8=Percy Sledge - Tell It Like It Is
TTITLE9=Percy Sledge - (Sittin' On) The Dock Of The Bay
EXTD=Ian Baker
EXTT0=
EXTT1=
EXTT2=
EXTT3=
EXTT4=
EXTT5=
EXTT6=
EXTT7=
EXTT8=
EXTT9=
PLAYORDER=
